<?xml version="1.0" standalone="no"?>
<!DOCTYPE svg PUBLIC "-//W3C//DTD SVG 20010904//EN"
 "http://www.w3.org/TR/2001/REC-SVG-20010904/DTD/svg10.dtd">
<svg version="1.0" xmlns="http://www.w3.org/2000/svg"
 width="512.000000pt" height="512.000000pt" viewBox="0 0 512.000000 512.000000"
 preserveAspectRatio="xMidYMid meet">
<g transform="translate(0.000000,512.000000) scale(0.100000,-0.100000)"
fill="#000000" stroke="none">
<path d="M811 5109 c-396 -35 -680 -264 -770 -621 -38 -150 -41 -266 -41
-1928 0 -1662 3 -1778 41 -1928 60 -239 214 -428 430 -532 107 -51 209 -77
356 -89 160 -14 3318 -15 3468 -1 244 23 408 89 550 222 161 150 240 328 265
593 14 150 13 3308 -1 3468 -12 147 -38 249 -89 356 -81 169 -202 290 -372
371 -106 51 -208 77 -355 89 -143 13 -3341 12 -3482 0z m2029 -818 c538 -113
989 -451 1238 -931 161 -307 229 -667 191 -1008 -24 -221 -77 -399 -180 -607
-76 -155 -161 -280 -270 -398 -39 -43 -70 -80 -67 -82 8 -9 268 85 348 125
116 58 242 138 330 209 l75 61 118 0 c64 0 117 -4 117 -9 0 -17 -107 -149
-195 -240 -295 -306 -672 -501 -1096 -567 -61 -10 -180 -17 -289 -19 -135 -2
-202 -7 -247 -19 -177 -47 -494 -61 -683 -31 -328 54 -614 180 -862 382 -99
81 -254 246 -330 353 -86 121 -196 343 -243 488 -263 829 111 1727 885 2126
182 94 348 148 555 181 139 22 469 14 605 -14z"/>
<path d="M2310 3789 c-327 -30 -621 -168 -855 -404 -161 -161 -260 -318 -333
-527 -122 -348 -95 -757 72 -1086 124 -245 374 -491 621 -615 133 -66 378
-137 472 -137 24 0 19 5 -36 36 -230 128 -453 325 -625 554 -263 350 -313 766
-135 1139 146 309 384 501 729 593 110 29 346 36 464 14 224 -43 383 -117 515
-241 221 -207 313 -493 245 -759 -54 -209 -239 -406 -443 -470 -205 -65 -364
-33 -486 95 -42 44 -55 65 -55 89 0 39 16 45 82 29 90 -21 172 -15 242 20 74
36 158 117 193 186 37 71 43 179 14 255 -120 316 -576 376 -841 110 -161 -160
-209 -389 -136 -642 35 -121 67 -182 142 -276 207 -259 520 -441 863 -503 137
-25 159 -24 206 8 79 52 202 163 266 240 159 188 258 391 311 636 31 144 31
398 0 544 -61 283 -176 497 -382 705 -240 243 -528 378 -870 408 -63 5 -124 9
-135 9 -11 -1 -58 -5 -105 -10z"/>
</g>
</svg>
